<svg width="1812" height="268" viewBox="0 0 1812 268" fill="none" xmlns="http://www.w3.org/2000/svg">
<mask id="path-1-outside-1_6_6427" maskUnits="userSpaceOnUse" x="0" y="0" width="1812" height="268" fill="black">
<rect fill="white" width="1812" height="268"/>
<path d="M33.8687 264.625H1V3.37499H33.8687V115.339H34.4453L60.3943 3.37499H92.6863L62.7008 125.857L94.1279 264.625H58.9527L34.4453 135.018H33.8687V264.625Z"/>
<path d="M195.698 264.625H161.965L157.063 199.482H130.826L125.059 264.625H95.3623L120.735 3.37499H170.326L195.698 264.625ZM144.665 39.3393L133.997 165.214H154.18L144.665 39.3393Z"/>
<path d="M238.847 264.625H205.979V3.37499H238.847V115.339H239.424L265.373 3.37499H297.665L267.68 125.857L299.107 264.625H263.931L239.424 135.018H238.847V264.625Z"/>
<path d="M382.801 3.37499H416.246V102.446H435.275V3.37499H468.721V264.625H435.275V138.071H416.246V264.625H382.801V3.37499Z"/>
<path d="M579.47 264.625H545.736L540.835 199.482H514.598L508.831 264.625H479.134L504.506 3.37499H554.098L579.47 264.625ZM528.437 39.3393L517.769 165.214H537.952L528.437 39.3393Z"/>
<path d="M589.751 3.37499H675.382V264.625H641.937V38.3214H623.196V264.625H589.751V3.37499Z"/>
<path d="M696.182 3.37499H726.744V142.821H727.321L751.54 3.37499H782.102V264.625H751.54V125.179H750.963L726.744 264.625H696.182V3.37499Z"/>
<path d="M855.369 90.9107V42.0536C855.369 37.5297 854.6 34.7024 853.063 33.5714C851.717 32.2143 849.026 31.5357 844.99 31.5357C840.953 31.5357 838.166 32.2143 836.628 33.5714C835.09 34.7024 834.322 37.5297 834.322 42.0536V225.946C834.322 230.47 835.09 233.411 836.628 234.768C838.166 235.899 840.953 236.464 844.99 236.464C849.026 236.464 851.717 235.899 853.063 234.768C854.6 233.411 855.369 230.47 855.369 225.946V170.304H888.814V225.946C888.814 233.863 888.238 240.196 887.085 244.946C883.432 259.649 869.401 267 844.99 267C829.805 267 819.137 264.625 812.986 259.875C805.105 253.768 801.165 242.458 801.165 225.946V42.0536C801.165 25.5417 805.105 14.2321 812.986 8.12499C819.137 3.375 829.805 1 844.99 1C869.401 1 883.432 8.35119 887.085 23.0536C888.238 27.8036 888.814 34.1369 888.814 42.0536V90.9107H855.369Z"/>
<path d="M996.467 264.625H962.733L957.831 199.482H931.594L925.828 264.625H896.131L921.503 3.37499H971.094L996.467 264.625ZM945.434 39.3393L934.766 165.214H954.948L945.434 39.3393Z"/>
<path d="M1049.94 264.625H1016.78V36.9643H991.407V3.37499H1075.31V36.9643H1049.94V264.625Z"/>
<path d="M1123.82 134.679V231.036H1134.77C1139 231.036 1141.69 228.774 1142.85 224.25C1143.42 222.214 1143.71 217.917 1143.71 211.357V154.696C1143.71 147.911 1143.42 143.5 1142.85 141.464C1141.69 136.94 1139 134.679 1134.77 134.679H1123.82ZM1123.82 3.37499V101.429C1142.65 101.429 1153.71 101.655 1156.97 102.107C1164.85 103.464 1170.14 107.536 1172.83 114.321C1175.71 121.107 1177.16 133.774 1177.16 152.321V213.732C1177.16 226.851 1176.48 236.351 1175.14 242.232C1172.83 253.315 1167.93 260.101 1160.43 262.589C1156.2 263.946 1150.63 264.625 1143.71 264.625H1090.66V3.37499H1123.82Z"/>
<path d="M1267.19 3.37499H1352.83V264.625H1319.38V38.3214H1300.64V264.625H1267.19V3.37499Z"/>
<path d="M1448.01 264.625H1373.62V3.37499H1448.01V36.9643H1407.07V103.804H1445.99V137.393H1407.07V231.036H1448.01V264.625Z"/>
<path d="M1516.48 90.9107V42.0536C1516.48 37.5297 1515.71 34.7024 1514.18 33.5714C1512.83 32.2143 1510.14 31.5357 1506.1 31.5357C1502.07 31.5357 1499.28 32.2143 1497.74 33.5714C1496.2 34.7024 1495.43 37.5297 1495.43 42.0536V225.946C1495.43 230.47 1496.2 233.411 1497.74 234.768C1499.28 235.899 1502.07 236.464 1506.1 236.464C1510.14 236.464 1512.83 235.899 1514.18 234.768C1515.71 233.411 1516.48 230.47 1516.48 225.946V170.304H1549.93V225.946C1549.93 233.863 1549.35 240.196 1548.2 244.946C1544.54 259.649 1530.51 267 1506.1 267C1490.92 267 1480.25 264.625 1474.1 259.875C1466.22 253.768 1462.28 242.458 1462.28 225.946V42.0536C1462.28 25.5417 1466.22 14.2321 1474.1 8.12499C1480.25 3.375 1490.92 1 1506.1 1C1530.51 1 1544.54 8.35119 1548.2 23.0536C1549.35 27.8036 1549.93 34.1369 1549.93 42.0536V90.9107H1516.48Z"/>
<path d="M1567.62 3.37499H1601.07V102.446H1620.1V3.37499H1653.54V264.625H1620.1V138.071H1601.07V264.625H1567.62V3.37499Z"/>
<path d="M1778.42 46.125C1778.42 40.6964 1777.75 36.9643 1776.4 34.9286C1775.06 32.6667 1772.08 31.5357 1767.46 31.5357C1760.74 31.5357 1757.37 36.3988 1757.37 46.125V225.946C1757.37 232.958 1760.74 236.464 1767.46 236.464C1774.77 236.464 1778.42 232.958 1778.42 225.946V46.125ZM1707.49 264.625H1674.34V3.37499H1707.49V103.464H1724.79V42.0536C1724.79 34.8155 1725.37 28.4821 1726.52 23.0536C1729.6 8.35119 1743.24 1 1767.46 1C1778.61 1 1786.97 2.01786 1792.55 4.05357C1801.97 7.22024 1807.64 13.5536 1809.56 23.0536C1810.52 27.5774 1811 33.9107 1811 42.0536V225.946C1811 233.637 1810.52 239.97 1809.56 244.946C1807.64 254.446 1801.97 260.893 1792.55 264.286C1787.17 266.095 1778.8 267 1767.46 267C1756.51 267 1748.34 265.982 1742.96 263.946C1733.92 260.78 1728.44 254.446 1726.52 244.946C1725.37 239.518 1724.79 233.185 1724.79 225.946V135.696H1707.49V264.625Z"/>
</mask>
<path d="M33.8687 264.625H1V3.37499H33.8687V115.339H34.4453L60.3943 3.37499H92.6863L62.7008 125.857L94.1279 264.625H58.9527L34.4453 135.018H33.8687V264.625Z" fill="#CC3327"/>
<path d="M195.698 264.625H161.965L157.063 199.482H130.826L125.059 264.625H95.3623L120.735 3.37499H170.326L195.698 264.625ZM144.665 39.3393L133.997 165.214H154.18L144.665 39.3393Z" fill="#CC3327"/>
<path d="M238.847 264.625H205.979V3.37499H238.847V115.339H239.424L265.373 3.37499H297.665L267.68 125.857L299.107 264.625H263.931L239.424 135.018H238.847V264.625Z" fill="#CC3327"/>
<path d="M382.801 3.37499H416.246V102.446H435.275V3.37499H468.721V264.625H435.275V138.071H416.246V264.625H382.801V3.37499Z" fill="#CC3327"/>
<path d="M579.47 264.625H545.736L540.835 199.482H514.598L508.831 264.625H479.134L504.506 3.37499H554.098L579.47 264.625ZM528.437 39.3393L517.769 165.214H537.952L528.437 39.3393Z" fill="#CC3327"/>
<path d="M589.751 3.37499H675.382V264.625H641.937V38.3214H623.196V264.625H589.751V3.37499Z" fill="#CC3327"/>
<path d="M696.182 3.37499H726.744V142.821H727.321L751.54 3.37499H782.102V264.625H751.54V125.179H750.963L726.744 264.625H696.182V3.37499Z" fill="#CC3327"/>
<path d="M855.369 90.9107V42.0536C855.369 37.5297 854.6 34.7024 853.063 33.5714C851.717 32.2143 849.026 31.5357 844.99 31.5357C840.953 31.5357 838.166 32.2143 836.628 33.5714C835.09 34.7024 834.322 37.5297 834.322 42.0536V225.946C834.322 230.47 835.09 233.411 836.628 234.768C838.166 235.899 840.953 236.464 844.99 236.464C849.026 236.464 851.717 235.899 853.063 234.768C854.6 233.411 855.369 230.47 855.369 225.946V170.304H888.814V225.946C888.814 233.863 888.238 240.196 887.085 244.946C883.432 259.649 869.401 267 844.99 267C829.805 267 819.137 264.625 812.986 259.875C805.105 253.768 801.165 242.458 801.165 225.946V42.0536C801.165 25.5417 805.105 14.2321 812.986 8.12499C819.137 3.375 829.805 1 844.99 1C869.401 1 883.432 8.35119 887.085 23.0536C888.238 27.8036 888.814 34.1369 888.814 42.0536V90.9107H855.369Z" fill="#CC3327"/>
<path d="M996.467 264.625H962.733L957.831 199.482H931.594L925.828 264.625H896.131L921.503 3.37499H971.094L996.467 264.625ZM945.434 39.3393L934.766 165.214H954.948L945.434 39.3393Z" fill="#CC3327"/>
<path d="M1049.94 264.625H1016.78V36.9643H991.407V3.37499H1075.31V36.9643H1049.94V264.625Z" fill="#CC3327"/>
<path d="M1123.82 134.679V231.036H1134.77C1139 231.036 1141.69 228.774 1142.85 224.25C1143.42 222.214 1143.71 217.917 1143.71 211.357V154.696C1143.71 147.911 1143.42 143.5 1142.85 141.464C1141.69 136.94 1139 134.679 1134.77 134.679H1123.82ZM1123.82 3.37499V101.429C1142.65 101.429 1153.71 101.655 1156.97 102.107C1164.85 103.464 1170.14 107.536 1172.83 114.321C1175.71 121.107 1177.16 133.774 1177.16 152.321V213.732C1177.16 226.851 1176.48 236.351 1175.14 242.232C1172.83 253.315 1167.93 260.101 1160.43 262.589C1156.2 263.946 1150.63 264.625 1143.71 264.625H1090.66V3.37499H1123.82Z" fill="#CC3327"/>
<path d="M1267.19 3.37499H1352.83V264.625H1319.38V38.3214H1300.64V264.625H1267.19V3.37499Z" fill="#CC3327"/>
<path d="M1448.01 264.625H1373.62V3.37499H1448.01V36.9643H1407.07V103.804H1445.99V137.393H1407.07V231.036H1448.01V264.625Z" fill="#CC3327"/>
<path d="M1516.48 90.9107V42.0536C1516.48 37.5297 1515.71 34.7024 1514.18 33.5714C1512.83 32.2143 1510.14 31.5357 1506.1 31.5357C1502.07 31.5357 1499.28 32.2143 1497.74 33.5714C1496.2 34.7024 1495.43 37.5297 1495.43 42.0536V225.946C1495.43 230.47 1496.2 233.411 1497.74 234.768C1499.28 235.899 1502.07 236.464 1506.1 236.464C1510.14 236.464 1512.83 235.899 1514.18 234.768C1515.71 233.411 1516.48 230.47 1516.48 225.946V170.304H1549.93V225.946C1549.93 233.863 1549.35 240.196 1548.2 244.946C1544.54 259.649 1530.51 267 1506.1 267C1490.92 267 1480.25 264.625 1474.1 259.875C1466.22 253.768 1462.28 242.458 1462.28 225.946V42.0536C1462.28 25.5417 1466.22 14.2321 1474.1 8.12499C1480.25 3.375 1490.92 1 1506.1 1C1530.51 1 1544.54 8.35119 1548.2 23.0536C1549.35 27.8036 1549.93 34.1369 1549.93 42.0536V90.9107H1516.48Z" fill="#CC3327"/>
<path d="M1567.62 3.37499H1601.07V102.446H1620.1V3.37499H1653.54V264.625H1620.1V138.071H1601.07V264.625H1567.62V3.37499Z" fill="#CC3327"/>
<path d="M1778.42 46.125C1778.42 40.6964 1777.75 36.9643 1776.4 34.9286C1775.06 32.6667 1772.08 31.5357 1767.46 31.5357C1760.74 31.5357 1757.37 36.3988 1757.37 46.125V225.946C1757.37 232.958 1760.74 236.464 1767.46 236.464C1774.77 236.464 1778.42 232.958 1778.42 225.946V46.125ZM1707.49 264.625H1674.34V3.37499H1707.49V103.464H1724.79V42.0536C1724.79 34.8155 1725.37 28.4821 1726.52 23.0536C1729.6 8.35119 1743.24 1 1767.46 1C1778.61 1 1786.97 2.01786 1792.55 4.05357C1801.97 7.22024 1807.64 13.5536 1809.56 23.0536C1810.52 27.5774 1811 33.9107 1811 42.0536V225.946C1811 233.637 1810.52 239.97 1809.56 244.946C1807.64 254.446 1801.97 260.893 1792.55 264.286C1787.17 266.095 1778.8 267 1767.46 267C1756.51 267 1748.34 265.982 1742.96 263.946C1733.92 260.78 1728.44 254.446 1726.52 244.946C1725.37 239.518 1724.79 233.185 1724.79 225.946V135.696H1707.49V264.625Z" fill="#CC3327"/>
<path d="M33.8687 264.625H1V3.37499H33.8687V115.339H34.4453L60.3943 3.37499H92.6863L62.7008 125.857L94.1279 264.625H58.9527L34.4453 135.018H33.8687V264.625Z" stroke="black" stroke-width="2" mask="url(#path-1-outside-1_6_6427)"/>
<path d="M195.698 264.625H161.965L157.063 199.482H130.826L125.059 264.625H95.3623L120.735 3.37499H170.326L195.698 264.625ZM144.665 39.3393L133.997 165.214H154.18L144.665 39.3393Z" stroke="black" stroke-width="2" mask="url(#path-1-outside-1_6_6427)"/>
<path d="M238.847 264.625H205.979V3.37499H238.847V115.339H239.424L265.373 3.37499H297.665L267.68 125.857L299.107 264.625H263.931L239.424 135.018H238.847V264.625Z" stroke="black" stroke-width="2" mask="url(#path-1-outside-1_6_6427)"/>
<path d="M382.801 3.37499H416.246V102.446H435.275V3.37499H468.721V264.625H435.275V138.071H416.246V264.625H382.801V3.37499Z" stroke="black" stroke-width="2" mask="url(#path-1-outside-1_6_6427)"/>
<path d="M579.47 264.625H545.736L540.835 199.482H514.598L508.831 264.625H479.134L504.506 3.37499H554.098L579.47 264.625ZM528.437 39.3393L517.769 165.214H537.952L528.437 39.3393Z" stroke="black" stroke-width="2" mask="url(#path-1-outside-1_6_6427)"/>
<path d="M589.751 3.37499H675.382V264.625H641.937V38.3214H623.196V264.625H589.751V3.37499Z" stroke="black" stroke-width="2" mask="url(#path-1-outside-1_6_6427)"/>
<path d="M696.182 3.37499H726.744V142.821H727.321L751.54 3.37499H782.102V264.625H751.54V125.179H750.963L726.744 264.625H696.182V3.37499Z" stroke="black" stroke-width="2" mask="url(#path-1-outside-1_6_6427)"/>
<path d="M855.369 90.9107V42.0536C855.369 37.5297 854.6 34.7024 853.063 33.5714C851.717 32.2143 849.026 31.5357 844.99 31.5357C840.953 31.5357 838.166 32.2143 836.628 33.5714C835.09 34.7024 834.322 37.5297 834.322 42.0536V225.946C834.322 230.47 835.09 233.411 836.628 234.768C838.166 235.899 840.953 236.464 844.99 236.464C849.026 236.464 851.717 235.899 853.063 234.768C854.6 233.411 855.369 230.47 855.369 225.946V170.304H888.814V225.946C888.814 233.863 888.238 240.196 887.085 244.946C883.432 259.649 869.401 267 844.99 267C829.805 267 819.137 264.625 812.986 259.875C805.105 253.768 801.165 242.458 801.165 225.946V42.0536C801.165 25.5417 805.105 14.2321 812.986 8.12499C819.137 3.375 829.805 1 844.99 1C869.401 1 883.432 8.35119 887.085 23.0536C888.238 27.8036 888.814 34.1369 888.814 42.0536V90.9107H855.369Z" stroke="black" stroke-width="2" mask="url(#path-1-outside-1_6_6427)"/>
<path d="M996.467 264.625H962.733L957.831 199.482H931.594L925.828 264.625H896.131L921.503 3.37499H971.094L996.467 264.625ZM945.434 39.3393L934.766 165.214H954.948L945.434 39.3393Z" stroke="black" stroke-width="2" mask="url(#path-1-outside-1_6_6427)"/>
<path d="M1049.94 264.625H1016.78V36.9643H991.407V3.37499H1075.31V36.9643H1049.94V264.625Z" stroke="black" stroke-width="2" mask="url(#path-1-outside-1_6_6427)"/>
<path d="M1123.82 134.679V231.036H1134.77C1139 231.036 1141.69 228.774 1142.85 224.25C1143.42 222.214 1143.71 217.917 1143.71 211.357V154.696C1143.71 147.911 1143.42 143.5 1142.85 141.464C1141.69 136.94 1139 134.679 1134.77 134.679H1123.82ZM1123.82 3.37499V101.429C1142.65 101.429 1153.71 101.655 1156.97 102.107C1164.85 103.464 1170.14 107.536 1172.83 114.321C1175.71 121.107 1177.16 133.774 1177.16 152.321V213.732C1177.16 226.851 1176.48 236.351 1175.14 242.232C1172.83 253.315 1167.93 260.101 1160.43 262.589C1156.2 263.946 1150.63 264.625 1143.71 264.625H1090.66V3.37499H1123.82Z" stroke="black" stroke-width="2" mask="url(#path-1-outside-1_6_6427)"/>
<path d="M1267.19 3.37499H1352.83V264.625H1319.38V38.3214H1300.64V264.625H1267.19V3.37499Z" stroke="black" stroke-width="2" mask="url(#path-1-outside-1_6_6427)"/>
<path d="M1448.01 264.625H1373.62V3.37499H1448.01V36.9643H1407.07V103.804H1445.99V137.393H1407.07V231.036H1448.01V264.625Z" stroke="black" stroke-width="2" mask="url(#path-1-outside-1_6_6427)"/>
<path d="M1516.48 90.9107V42.0536C1516.48 37.5297 1515.71 34.7024 1514.18 33.5714C1512.83 32.2143 1510.14 31.5357 1506.1 31.5357C1502.07 31.5357 1499.28 32.2143 1497.74 33.5714C1496.2 34.7024 1495.43 37.5297 1495.43 42.0536V225.946C1495.43 230.47 1496.2 233.411 1497.74 234.768C1499.28 235.899 1502.07 236.464 1506.1 236.464C1510.14 236.464 1512.83 235.899 1514.18 234.768C1515.71 233.411 1516.48 230.47 1516.48 225.946V170.304H1549.93V225.946C1549.93 233.863 1549.35 240.196 1548.2 244.946C1544.54 259.649 1530.51 267 1506.1 267C1490.92 267 1480.25 264.625 1474.1 259.875C1466.22 253.768 1462.28 242.458 1462.28 225.946V42.0536C1462.28 25.5417 1466.22 14.2321 1474.1 8.12499C1480.25 3.375 1490.92 1 1506.1 1C1530.51 1 1544.54 8.35119 1548.2 23.0536C1549.35 27.8036 1549.93 34.1369 1549.93 42.0536V90.9107H1516.48Z" stroke="black" stroke-width="2" mask="url(#path-1-outside-1_6_6427)"/>
<path d="M1567.62 3.37499H1601.07V102.446H1620.1V3.37499H1653.54V264.625H1620.1V138.071H1601.07V264.625H1567.62V3.37499Z" stroke="black" stroke-width="2" mask="url(#path-1-outside-1_6_6427)"/>
<path d="M1778.42 46.125C1778.42 40.6964 1777.75 36.9643 1776.4 34.9286C1775.06 32.6667 1772.08 31.5357 1767.46 31.5357C1760.74 31.5357 1757.37 36.3988 1757.37 46.125V225.946C1757.37 232.958 1760.74 236.464 1767.46 236.464C1774.77 236.464 1778.42 232.958 1778.42 225.946V46.125ZM1707.49 264.625H1674.34V3.37499H1707.49V103.464H1724.79V42.0536C1724.79 34.8155 1725.37 28.4821 1726.52 23.0536C1729.6 8.35119 1743.24 1 1767.46 1C1778.61 1 1786.97 2.01786 1792.55 4.05357C1801.97 7.22024 1807.64 13.5536 1809.56 23.0536C1810.52 27.5774 1811 33.9107 1811 42.0536V225.946C1811 233.637 1810.52 239.97 1809.56 244.946C1807.64 254.446 1801.97 260.893 1792.55 264.286C1787.17 266.095 1778.8 267 1767.46 267C1756.51 267 1748.34 265.982 1742.96 263.946C1733.92 260.78 1728.44 254.446 1726.52 244.946C1725.37 239.518 1724.79 233.185 1724.79 225.946V135.696H1707.49V264.625Z" stroke="black" stroke-width="2" mask="url(#path-1-outside-1_6_6427)"/>
</svg>
