<svg width="358" height="106" viewBox="0 0 358 106" fill="none" xmlns="http://www.w3.org/2000/svg">
<g filter="url(#filter0_d_140_582)">
<path d="M27.4916 82.875V57.875H22.1185V45H41.9864V82.875C41.9864 85.7917 41.7365 88.125 41.2367 89.875C39.6539 95.2917 33.5728 98 22.9932 98C16.4122 98 11.7889 97.125 9.12315 95.375C5.70771 93.125 4 88.9583 4 82.875V15.125C4 9.04166 5.70771 4.875 9.12315 2.625C11.7889 0.874998 16.4122 0 22.9932 0C33.5728 0 39.6539 2.70833 41.2367 8.125C41.7365 9.875 41.9864 12.2083 41.9864 15.125V33.125H27.4916V15.125C27.4916 13.4583 27.1584 12.4167 26.4919 12C25.9088 11.5 24.7426 11.25 22.9932 11.25C21.2438 11.25 20.0359 11.5 19.3695 12C18.7864 12.4167 18.4948 13.4583 18.4948 15.125V82.875C18.4948 84.5417 18.7864 85.625 19.3695 86.125C20.0359 86.5417 21.2438 86.75 22.9932 86.75C24.7426 86.75 25.9088 86.5417 26.4919 86.125C27.1584 85.625 27.4916 84.5417 27.4916 82.875Z" fill="#CC3327"/>
<path d="M49.7805 97.125V0.874996H66.1497C75.3131 0.874996 81.1443 2.16666 83.6434 4.75C86.1425 7.25 87.3921 13.0833 87.3921 22.25V33.75C87.3921 45.3333 85.8926 52.2083 82.8937 54.375C81.7274 55.2083 80.2696 55.8333 78.5203 56.25L89.3914 97.125H74.5217L64.2754 56.125H64.0255V97.125H49.7805ZM64.0255 12.375V45.5H69.2735C70.0233 45.5 70.6064 45.375 71.0229 45.125C72.1892 44.4583 72.7723 41 72.7723 34.75V21.625C72.7723 16.125 72.2308 13.125 71.1479 12.625C70.8146 12.4583 70.1899 12.375 69.2735 12.375H64.0255Z" fill="#CC3327"/>
<path d="M127.895 97.125H95.6567V0.874996H127.895V13.25H110.152V37.875H127.021V50.25H110.152V84.75H127.895V97.125Z" fill="#CC3327"/>
<path d="M157.569 33.125V15.125C157.569 13.4583 157.236 12.4167 156.57 12C155.986 11.5 154.82 11.25 153.071 11.25C151.321 11.25 150.113 11.5 149.447 12C148.781 12.4167 148.447 13.4583 148.447 15.125V82.875C148.447 84.5417 148.781 85.625 149.447 86.125C150.113 86.5417 151.321 86.75 153.071 86.75C154.82 86.75 155.986 86.5417 156.57 86.125C157.236 85.625 157.569 84.5417 157.569 82.875V62.375H172.064V82.875C172.064 85.7917 171.814 88.125 171.314 89.875C169.731 95.2917 163.65 98 153.071 98C146.49 98 141.866 97.125 139.201 95.375C135.785 93.125 134.078 88.9583 134.078 82.875V15.125C134.078 9.04166 135.785 4.875 139.201 2.625C141.866 0.874998 146.49 0 153.071 0C163.65 0 169.731 2.70833 171.314 8.125C171.814 9.875 172.064 12.2083 172.064 15.125V33.125H157.569Z" fill="#CC3327"/>
<path d="M178.983 15.125C178.983 8.95833 180.691 4.79166 184.107 2.625C186.772 0.874998 191.396 0 197.977 0C208.556 0 214.637 2.70833 216.22 8.125C216.72 9.875 216.97 12.2083 216.97 15.125V82.875C216.97 85.7917 216.72 88.125 216.22 89.875C214.637 95.2917 208.556 98 197.977 98C191.396 98 186.772 97.125 184.107 95.375C180.691 93.2083 178.983 89.0417 178.983 82.875V15.125ZM202.475 82.875V15.125C202.475 13.4583 202.142 12.4167 201.475 12C200.892 11.5 199.726 11.25 197.977 11.25C196.227 11.25 195.019 11.5 194.353 12C193.686 12.4167 193.353 13.4583 193.353 15.125V82.875C193.353 84.5417 193.686 85.625 194.353 86.125C195.019 86.5417 196.227 86.75 197.977 86.75C199.726 86.75 200.892 86.5417 201.475 86.125C202.142 85.625 202.475 84.5417 202.475 82.875Z" fill="#CC3327"/>
<path d="M225.377 97.125V0.874996H241.746C250.909 0.874996 256.741 2.16666 259.24 4.75C261.739 7.25 262.989 13.0833 262.989 22.25V33.75C262.989 45.3333 261.489 52.2083 258.49 54.375C257.324 55.2083 255.866 55.8333 254.117 56.25L264.988 97.125H250.118L239.872 56.125H239.622V97.125H225.377ZM239.622 12.375V45.5H244.87C245.62 45.5 246.203 45.375 246.619 45.125C247.786 44.4583 248.369 41 248.369 34.75V21.625C248.369 16.125 247.827 13.125 246.744 12.625C246.411 12.4583 245.786 12.375 244.87 12.375H239.622Z" fill="#CC3327"/>
<path d="M285.748 12.375V85.625H289.872C291.871 85.625 293.204 84.875 293.87 83.375C294.203 82.4583 294.37 80.7917 294.37 78.375V19.875C294.37 14.875 292.912 12.375 289.996 12.375H285.748ZM271.378 97.125V0.874996H293.495C296.328 0.874996 298.66 1.125 300.493 1.62499C306.074 3.12499 308.865 9.08333 308.865 19.5V79.75C308.865 86 307.865 90.375 305.866 92.875C303.617 95.7083 299.493 97.125 293.495 97.125H271.378Z" fill="#CC3327"/>
<path d="M316.263 61.375H330.508V82.875C330.508 84.5417 330.842 85.625 331.508 86.125C332.174 86.5417 333.382 86.75 335.132 86.75C336.881 86.75 338.047 86.5417 338.63 86.125C339.297 85.625 339.63 84.5417 339.63 82.875V71.375C339.63 68.625 339.13 66.2917 338.131 64.375C337.464 63.0417 336.465 61.5 335.132 59.75C334.715 59.1667 331.716 55.5 326.135 48.75C322.22 44 319.554 40.25 318.138 37.5C316.888 35.0833 316.263 31.5 316.263 26.75V14.625C316.263 8.54166 317.971 4.45833 321.387 2.375C323.969 0.791667 328.551 0 335.132 0C345.795 0 351.834 2.70833 353.25 8.125C353.75 9.95833 354 12.2917 354 15.125V34.625H339.63V15.125C339.63 13.4583 339.297 12.4167 338.63 12C338.047 11.5 336.881 11.25 335.132 11.25C333.382 11.25 332.174 11.5 331.508 12C330.842 12.4167 330.508 13.4583 330.508 15.125V26.25C330.508 28.5 331.05 30.5833 332.133 32.5C332.633 33.4167 333.632 34.8333 335.132 36.75C338.131 40.4167 341.088 44.0833 344.004 47.75C348.002 52.6667 350.626 56.4167 351.876 59C353.292 61.8333 354 65.5833 354 70.25V83.375C354 89.4583 352.292 93.5417 348.877 95.625C346.294 97.2083 341.713 98 335.132 98C324.469 98 318.429 95.2917 317.013 89.875C316.513 88.0417 316.263 85.7083 316.263 82.875V61.375Z" fill="#CC3327"/>
</g>
<defs>
<filter id="filter0_d_140_582" x="0.0761805" y="0" width="357.848" height="105.848" filterUnits="userSpaceOnUse" color-interpolation-filters="sRGB">
<feFlood flood-opacity="0" result="BackgroundImageFix"/>
<feColorMatrix in="SourceAlpha" type="matrix" values="0 0 0 0 0 0 0 0 0 0 0 0 0 0 0 0 0 0 127 0" result="hardAlpha"/>
<feOffset dy="3.92382"/>
<feGaussianBlur stdDeviation="1.96191"/>
<feComposite in2="hardAlpha" operator="out"/>
<feColorMatrix type="matrix" values="0 0 0 0 0 0 0 0 0 0 0 0 0 0 0 0 0 0 0.25 0"/>
<feBlend mode="normal" in2="BackgroundImageFix" result="effect1_dropShadow_140_582"/>
<feBlend mode="normal" in="SourceGraphic" in2="effect1_dropShadow_140_582" result="shape"/>
</filter>
</defs>
</svg>
