<svg width="167" height="56" viewBox="0 0 167 56" fill="none" xmlns="http://www.w3.org/2000/svg">
<g filter="url(#filter0_d_140_547)">
<path d="M22.7125 41.5748H16.4212L15.5071 31.2081H10.6139L9.53847 41.5748H4L8.7319 0H17.9806L22.7125 41.5748ZM13.1949 5.72329L11.2054 25.7548H14.9694L13.1949 5.72329Z" fill="#CC3327"/>
<path d="M30.7598 41.5748H24.6298V0H30.7598V17.8178H30.8673L35.7067 0H41.7292L36.1369 19.4916L41.998 41.5748H35.4379L30.8673 20.9494H30.7598V41.5748Z" fill="#CC3327"/>
<path d="M60.9407 41.5748H54.6495L53.7353 31.2081H48.8421L47.7667 41.5748H42.2282L46.9601 0H56.2088L60.9407 41.5748ZM51.4232 5.72329L49.4336 25.7548H53.1976L51.4232 5.72329Z" fill="#CC3327"/>
<path d="M60.9223 36.2295H61.2986C62.4816 36.2295 63.0731 34.5737 63.0731 31.2621V0H78.8282V36.2295H80.5489V48H75.0642V41.5748H66.4607V48H60.9223V36.2295ZM68.3427 36.2295H72.752V5.5613H68.988V31.3161C68.988 33.6198 68.7729 35.2576 68.3427 36.2295Z" fill="#CC3327"/>
<path d="M96.6329 41.5748H82.7598V0H96.6329V5.34533H88.9973V15.982H96.2565V21.3273H88.9973V36.2295H96.6329V41.5748Z" fill="#CC3327"/>
<path d="M114.296 0H123.437V41.5748H118.06V8.26097H117.898L114.242 41.5748H108.972L105.208 8.26097H105.101V41.5748H99.6159V0H108.757L111.876 29.5883H111.983L114.296 0Z" fill="#CC3327"/>
<path d="M127.289 0H132.989V22.1912H133.097L137.614 0H143.313V41.5748H137.614V19.3836H137.506L132.989 41.5748H127.289V0Z" fill="#CC3327"/>
<path d="M163 41.5748H156.924V23.865H156.816L152.407 41.5748H146.008L150.686 23.919C150.005 23.739 149.396 23.4691 148.858 23.1091C147.532 22.1732 146.869 19.2036 146.869 14.2002V9.23285C146.869 5.27334 147.406 2.75366 148.482 1.67379C149.557 0.557931 152.066 0 156.01 0H163V41.5748ZM156.924 4.96738H154.665C154.307 4.96738 154.056 5.00337 153.913 5.07536C153.411 5.32733 153.16 6.85714 153.16 9.66479V14.2542C153.16 17.2058 153.429 18.8256 153.966 19.1136C154.146 19.2216 154.379 19.2756 154.665 19.2756H156.924V4.96738Z" fill="#CC3327"/>
</g>
<defs>
<filter id="filter0_d_140_547" x="0.0761805" y="0" width="166.848" height="55.8476" filterUnits="userSpaceOnUse" color-interpolation-filters="sRGB">
<feFlood flood-opacity="0" result="BackgroundImageFix"/>
<feColorMatrix in="SourceAlpha" type="matrix" values="0 0 0 0 0 0 0 0 0 0 0 0 0 0 0 0 0 0 127 0" result="hardAlpha"/>
<feOffset dy="3.92382"/>
<feGaussianBlur stdDeviation="1.96191"/>
<feComposite in2="hardAlpha" operator="out"/>
<feColorMatrix type="matrix" values="0 0 0 0 0 0 0 0 0 0 0 0 0 0 0 0 0 0 0.25 0"/>
<feBlend mode="normal" in2="BackgroundImageFix" result="effect1_dropShadow_140_547"/>
<feBlend mode="normal" in="SourceGraphic" in2="effect1_dropShadow_140_547" result="shape"/>
</filter>
</defs>
</svg>
