<svg width="278" height="94" viewBox="0 0 278 94" fill="none" xmlns="http://www.w3.org/2000/svg">
<path d="M0 0.839282H11.6781V35.8495H18.3226V0.839282H30.0007V93.1607H18.3226V48.4388H11.6781V93.1607H0V0.839282Z" fill="#CC3327"/>
<path d="M68.6712 93.1607H56.8924L55.181 70.1403H46.0197L44.0062 93.1607H33.6368L42.4961 0.839282H59.812L68.6712 93.1607ZM50.852 13.5485L47.1271 58.0306H54.1742L50.852 13.5485Z" fill="#CC3327"/>
<path d="M72.2609 0.839282H102.161V93.1607H90.4828V13.1888H83.939V93.1607H72.2609V0.839282Z" fill="#CC3327"/>
<path d="M109.424 0.839282H120.095V50.1173H120.296L128.753 0.839282H139.424V93.1607H128.753V43.8827H128.552L120.095 93.1607H109.424V0.839282Z" fill="#CC3327"/>
<path d="M165.007 31.773V14.5077C165.007 12.909 164.739 11.9099 164.202 11.5102C163.732 11.0306 162.792 10.7908 161.383 10.7908C159.974 10.7908 159 11.0306 158.463 11.5102C157.927 11.9099 157.658 12.909 157.658 14.5077V79.4923C157.658 81.091 157.927 82.1301 158.463 82.6097C159 83.0093 159.974 83.2092 161.383 83.2092C162.792 83.2092 163.732 83.0093 164.202 82.6097C164.739 82.1301 165.007 81.091 165.007 79.4923V59.8291H176.685V79.4923C176.685 82.29 176.484 84.5281 176.081 86.2066C174.806 91.4022 169.907 94 161.383 94C156.081 94 152.356 93.1607 150.208 91.4821C147.456 89.324 146.081 85.3274 146.081 79.4923V14.5077C146.081 8.67262 147.456 4.67602 150.208 2.51785C152.356 0.839284 156.081 0 161.383 0C169.907 0 174.806 2.59779 176.081 7.79337C176.484 9.47194 176.685 11.71 176.685 14.5077V31.773H165.007Z" fill="#CC3327"/>
<path d="M214.274 93.1607H202.496L200.784 70.1403H191.623L189.609 93.1607H179.24L188.099 0.839282H205.415L214.274 93.1607ZM196.455 13.5485L192.73 58.0306H199.777L196.455 13.5485Z" fill="#CC3327"/>
<path d="M232.945 93.1607H221.367V12.7092H212.508V0.839282H241.804V12.7092H232.945V93.1607Z" fill="#CC3327"/>
<path d="M258.741 47.2398V81.2908H262.567C264.044 81.2908 264.983 80.4915 265.386 78.8929C265.587 78.1735 265.688 76.6548 265.688 74.3367V54.3138C265.688 51.9158 265.587 50.3571 265.386 49.6378C264.983 48.0391 264.044 47.2398 262.567 47.2398H258.741ZM258.741 0.839282V35.4898C265.319 35.4898 269.178 35.5697 270.319 35.7296C273.071 36.2092 274.916 37.648 275.856 40.0459C276.863 42.4439 277.366 46.9201 277.366 53.4745V75.176C277.366 79.8121 277.131 83.1692 276.661 85.2475C275.856 89.1641 274.145 91.5621 271.527 92.4413C270.05 92.9209 268.104 93.1607 265.688 93.1607H247.164V0.839282H258.741Z" fill="#CC3327"/>
</svg>
