<svg width="105" height="93" viewBox="0 0 105 93" fill="none" xmlns="http://www.w3.org/2000/svg">
<path d="M11.4768 92.3214H0V0H11.4768V39.5663H11.6781L20.7388 0H32.0142L21.5442 43.2832L32.5176 92.3214H20.2354L11.6781 46.5204H11.4768V92.3214Z" fill="#CC3327"/>
<path d="M67.983 92.3214H56.2042L54.4928 69.301H45.3315L43.318 92.3214H32.9486L41.8079 0H59.1237L67.983 92.3214ZM50.1638 12.7092L46.4389 57.1913H53.486L50.1638 12.7092Z" fill="#CC3327"/>
<path d="M83.0495 92.3214H71.5727V0H83.0495V39.5663H83.2508L92.3114 0H103.587L93.1168 43.2832L104.09 92.3214H91.8081L83.2508 46.5204H83.0495V92.3214Z" fill="#CC3327"/>
</svg>
