<svg width="190" height="94" viewBox="0 0 190 94" fill="none" xmlns="http://www.w3.org/2000/svg">
<path d="M0 0.839282H29.9001V93.1607H18.2219V13.1888H11.6781V93.1607H0V0.839282Z" fill="#CC3327"/>
<path d="M63.1365 93.1607H37.1627V0.839282H63.1365V12.7092H48.8408V36.3291H62.4318V48.199H48.8408V81.2908H63.1365V93.1607Z" fill="#CC3327"/>
<path d="M87.0442 31.773V14.5077C87.0442 12.909 86.7757 11.9099 86.2388 11.5102C85.769 11.0306 84.8293 10.7908 83.4199 10.7908C82.0105 10.7908 81.0373 11.0306 80.5004 11.5102C79.9635 11.9099 79.695 12.909 79.695 14.5077V79.4923C79.695 81.091 79.9635 82.1301 80.5004 82.6097C81.0373 83.0093 82.0105 83.2092 83.4199 83.2092C84.8293 83.2092 85.769 83.0093 86.2388 82.6097C86.7757 82.1301 87.0442 81.091 87.0442 79.4923V59.8291H98.7223V79.4923C98.7223 82.29 98.521 84.5281 98.1183 86.2066C96.8431 91.4022 91.9436 94 83.4199 94C78.1177 94 74.3929 93.1607 72.2451 91.4821C69.4934 89.324 68.1175 85.3274 68.1175 79.4923V14.5077C68.1175 8.67262 69.4934 4.67602 72.2451 2.51785C74.3929 0.839284 78.1177 0 83.4199 0C91.9436 0 96.8431 2.59779 98.1183 7.79337C98.521 9.47194 98.7223 11.71 98.7223 14.5077V31.773H87.0442Z" fill="#CC3327"/>
<path d="M104.901 0.839282H116.579V35.8495H123.224V0.839282H134.902V93.1607H123.224V48.4388H116.579V93.1607H104.901V0.839282Z" fill="#CC3327"/>
<path d="M178.505 15.9464C178.505 14.0281 178.27 12.7092 177.801 11.9898C177.331 11.1905 176.291 10.7908 174.68 10.7908C172.331 10.7908 171.156 12.5093 171.156 15.9464V79.4923C171.156 81.9702 172.331 83.2092 174.68 83.2092C177.23 83.2092 178.505 81.9702 178.505 79.4923V15.9464ZM153.74 93.1607H142.162V0.839282H153.74V36.2092H159.78V14.5077C159.78 11.9498 159.981 9.71173 160.384 7.79337C161.458 2.59779 166.223 0 174.68 0C178.572 0 181.492 0.359694 183.438 1.07908C186.727 2.19813 188.707 4.43622 189.378 7.79337C189.714 9.392 189.882 11.6301 189.882 14.5077V79.4923C189.882 82.21 189.714 84.4481 189.378 86.2066C188.707 89.5638 186.727 91.8418 183.438 93.0408C181.559 93.6803 178.64 94 174.68 94C170.854 94 168.002 93.6403 166.123 92.9209C162.968 91.8019 161.055 89.5638 160.384 86.2066C159.981 84.2883 159.78 82.0502 159.78 79.4923V47.5995H153.74V93.1607Z" fill="#CC3327"/>
</svg>
