<svg width="1810" height="266" viewBox="0 0 1810 266" fill="none" xmlns="http://www.w3.org/2000/svg">
<path d="M0 2.37499H41.8355V101.446H65.6385V2.37499H107.474V263.625H65.6385V137.071H41.8355V263.625H0V2.37499Z" fill="#CC3327"/>
<path d="M246.006 263.625H203.81L197.679 198.482H164.86L157.647 263.625H120.5L152.237 2.37499H214.269L246.006 263.625ZM182.171 38.3393L168.827 164.214H194.072L182.171 38.3393Z" fill="#CC3327"/>
<path d="M366.34 224.946C366.34 242.137 361.651 253.56 352.274 259.214C345.061 263.738 331.597 266 311.881 266C280.625 266 262.953 258.649 258.866 243.946C257.423 238.744 256.702 232.411 256.702 224.946V169.304H298.177V220.875C298.177 226.304 298.898 229.923 300.341 231.732C302.264 234.22 306.111 235.464 311.881 235.464C320.297 235.464 324.504 230.601 324.504 220.875V153.357C324.504 141.143 320.297 135.036 311.881 135.036H288.078V102.804H311.881C320.297 102.804 324.504 96.8095 324.504 84.8214V45.125C324.504 35.3988 320.297 30.5357 311.881 30.5357C306.111 30.5357 302.384 31.6667 300.701 33.9286C299.018 35.9643 298.177 39.6964 298.177 45.125V72.2679H256.702V41.0536C256.702 33.5893 257.423 27.256 258.866 22.0536C262.953 7.35119 280.625 0 311.881 0C331.116 0 344.46 2.2619 351.914 6.78571C361.531 12.6667 366.34 24.0893 366.34 41.0536V84.8214C366.34 103.369 357.323 114.905 339.291 119.429C357.323 124.857 366.34 137.976 366.34 158.786V224.946Z" fill="#CC3327"/>
<path d="M427.786 136.054V232.411H437.163C447.982 232.411 453.392 225.625 453.392 212.054V157.768C453.392 143.292 447.621 136.054 436.081 136.054H427.786ZM452.31 263.625H386.671V2.37499H446.179C464.211 2.37499 476.473 5.88094 482.965 12.8929C488.736 19.4524 491.621 31.4405 491.621 48.8571V84.8214C491.621 96.3571 489.457 104.5 485.129 109.25C481.042 113.774 472.987 117.167 460.966 119.429C473.228 121.238 481.763 125.31 486.572 131.643C491.621 137.75 494.145 146.798 494.145 158.786V213.071C494.145 241.345 486.572 257.518 471.424 261.589C466.375 262.946 460.004 263.625 452.31 263.625ZM427.064 32.2321V105.518H437.163C447.261 105.518 452.31 98.7321 452.31 85.1607V50.5536C452.31 38.3393 447.381 32.2321 437.523 32.2321H427.064Z" fill="#CC3327"/>
<path d="M627.437 263.625H585.241L579.11 198.482H546.29L539.077 263.625H501.93L533.668 2.37499H595.7L627.437 263.625ZM563.602 38.3393L550.258 164.214H575.503L563.602 38.3393Z" fill="#CC3327"/>
<path d="M640.296 2.37499H682.132V101.446H705.935V2.37499H747.77V263.625H705.935V137.071H682.132V263.625H640.296V2.37499Z" fill="#CC3327"/>
<path d="M773.779 2.37499H812.008V141.821H812.73L843.024 2.37499H881.253V263.625H843.024V124.179H842.303L812.008 263.625H773.779V2.37499Z" fill="#CC3327"/>
<path d="M1000.31 263.625H907.263V2.37499H1000.31V35.9643H949.098V102.804H997.786V136.393H949.098V230.036H1000.31V263.625Z" fill="#CC3327"/>
<path d="M1176.12 89.9107V41.0536C1176.12 36.5298 1175.16 33.7024 1173.23 32.5714C1171.55 31.2143 1168.19 30.5357 1163.14 30.5357C1158.09 30.5357 1154.6 31.2143 1152.68 32.5714C1150.75 33.7024 1149.79 36.5298 1149.79 41.0536V224.946C1149.79 229.47 1150.75 232.411 1152.68 233.768C1154.6 234.899 1158.09 235.464 1163.14 235.464C1168.19 235.464 1171.55 234.899 1173.23 233.768C1175.16 232.411 1176.12 229.47 1176.12 224.946V169.304H1217.95V224.946C1217.95 232.863 1217.23 239.196 1215.79 243.946C1211.22 258.649 1193.67 266 1163.14 266C1144.14 266 1130.8 263.625 1123.1 258.875C1113.25 252.768 1108.32 241.458 1108.32 224.946V41.0536C1108.32 24.5417 1113.25 13.2321 1123.1 7.12499C1130.8 2.375 1144.14 0 1163.14 0C1193.67 0 1211.22 7.35119 1215.79 22.0536C1217.23 26.8036 1217.95 33.1369 1217.95 41.0536V89.9107H1176.12Z" fill="#CC3327"/>
<path d="M1302.92 263.625H1261.44V35.9643H1229.71V2.37499H1334.66V35.9643H1302.92V263.625Z" fill="#CC3327"/>
<path d="M1454.05 263.625H1411.85L1405.72 198.482H1372.9L1365.69 263.625H1328.54L1360.28 2.37499H1422.31L1454.05 263.625ZM1390.21 38.3393L1376.87 164.214H1402.11L1390.21 38.3393Z" fill="#CC3327"/>
<path d="M1520.93 263.625H1479.45V35.9643H1447.72V2.37499H1552.67V35.9643H1520.93V149.795V263.625Z" fill="#CC3327"/>
<path d="M1613.34 133.679V230.036H1627.05C1632.34 230.036 1635.7 227.774 1637.15 223.25C1637.87 221.214 1638.23 216.917 1638.23 210.357V153.696C1638.23 146.911 1637.87 142.5 1637.15 140.464C1635.7 135.94 1632.34 133.679 1627.05 133.679H1613.34ZM1613.34 2.37499V100.429C1636.91 100.429 1650.73 100.655 1654.82 101.107C1664.68 102.464 1671.29 106.536 1674.65 113.321C1678.26 120.107 1680.06 132.774 1680.06 151.321V212.732C1680.06 225.851 1679.22 235.351 1677.54 241.232C1674.65 252.315 1668.52 259.101 1659.15 261.589C1653.86 262.946 1646.88 263.625 1638.23 263.625H1571.87V2.37499H1613.34Z" fill="#CC3327"/>
<path d="M1702.53 2.37499H1740.76V141.821H1741.48L1771.77 2.37499H1810V263.625H1771.77V124.179H1771.05L1740.76 263.625H1702.53V2.37499Z" fill="#CC3327"/>
</svg>
